<?xml version="1.0" encoding="UTF-8"?>
<svg id="Layer_1" data-name="Layer 1" xmlns="http://www.w3.org/2000/svg" viewBox="0 0 841.89 595.28">
  <defs>
    <style>
      .cls-1 {
        fill: #07dc78;
      }
    </style>
  </defs>
  <polygon class="cls-1" points="281.74 241.14 123.54 241.14 123.53 241.14 123.53 331.55 146.13 331.55 146.13 263.74 259.14 263.74 259.14 331.55 146.13 331.55 146.13 354.14 259.14 354.14 281.74 354.14 281.74 331.54 281.74 263.73 281.74 263.74 281.74 241.14"/>
  <rect class="cls-1" x="175.36" y="286" width="22.6" height="22.6" transform="translate(-155.55 219.06) rotate(-45)"/>
  <rect class="cls-1" x="220.56" y="285.99" width="22.6" height="22.6" transform="translate(-142.3 251.02) rotate(-45)"/>
  <polygon class="cls-1" points="336.45 269.14 368.29 269.14 368.29 348.44 389.97 348.44 389.97 269.14 421.81 269.14 421.81 248.91 336.45 248.91 336.45 269.14"/>
  <path class="cls-1" d="M519.98,280.66c0-23.55-7.4-31.79-32.08-31.79h-53.31v99.53h21.29s-.02-35.79-.02-35.79h23.16l17.24,35.78h23.84l-18.67-38.34c13.69-4.56,18.55-12.37,18.55-29.39ZM497.59,284.54c0,6.41-5.49,8.85-12.74,8.85h0s-28.97.01-28.97.01v-24.71h28.97c7.25,0,12.74,2.44,12.74,8.85v7Z"/>
  <polygon class="cls-1" points="663.54 328.17 663.54 307.48 663.54 288.37 663.54 269.11 717.36 269.11 717.36 248.87 641.86 248.87 641.86 348.41 718.36 348.41 718.36 328.17 663.54 328.17"/>
  <rect class="cls-1" x="690.08" y="285.99" width="22.6" height="22.6" transform="translate(-4.78 583.02) rotate(-45)"/>
  <path class="cls-1" d="M566.46,248.91l-38.14,99.49h23.6l8.27-23.62h40.34l9.03,23.62h22.66l-36.95-99.49h-28.81ZM566.79,307.01l12.4-35.99h2.81l12.57,35.99h-27.78Z"/>
</svg>